<svg xmlns="http://www.w3.org/2000/svg" viewBox="0 0 749.07 247.9"><defs><style>.cls-1,.cls-6{isolation:isolate;}.cls-1{font-size:75.38px;fill:#fff;font-family:BebasNeueBold, Bebas Neue;letter-spacing:0.1em;}.cls-2{letter-spacing:0.1em;}.cls-3{fill:#004f7f;}.cls-4,.cls-6{fill:#00bf9a;}.cls-5{fill:none;}.cls-6{font-size:19.33px;font-family:Poppins-Regular, Poppins;letter-spacing:0.1em;}</style></defs><title>Asset 4</title><g id="Layer_2" data-name="Layer 2"><g id="Layer_1-2" data-name="Layer 1"><text class="cls-1" transform="translate(347.92 147.4) scale(1.06 1)">C<tspan class="cls-2" x="36.56" y="0">O</tspan><tspan x="73.8" y="0">VID19</tspan></text><path class="cls-3" d="M20.37,77.8,103.17,0h0c27.1,25.5,27.1,66.7,0,92.2L20.37,170h0C-6.73,144.6-6.73,103.3,20.37,77.8Z"/><path class="cls-4" d="M103.07,155.7l-26.6-25L20.27,77.9h0c-18.4,17.3-24.3,42-17.6,64a64.23,64.23,0,0,0,17.6,28.2l82.8,77.8C130.17,222.5,130.17,181.2,103.07,155.7Z"/><path class="cls-4" d="M270.37,77.8,187.57,0h0c-27.1,25.5-27.1,66.7,0,92.2l82.8,77.8h0C297.47,144.6,297.47,103.3,270.37,77.8Z"/><path class="cls-3" d="M187.67,155.7l26.6-25,56.2-52.8h0c18.4,17.3,24.3,42,17.6,64a64.23,64.23,0,0,1-17.6,28.2l-82.8,77.8C160.57,222.5,160.57,181.2,187.67,155.7Z"/><rect class="cls-5" x="201.37" y="94.6" width="547.7" height="74.3"/><rect class="cls-5" x="288.47" y="159" width="373.5" height="26.4"/><text class="cls-6" transform="translate(361.91 173.26) scale(1.06 1)">POWERED BY ALFTRI</text></g></g></svg>